<?xml version="1.0" encoding="UTF-8"?>
<svg width="512px" height="512px" viewBox="0 0 512 512" version="1.1" xmlns="http://www.w3.org/2000/svg" xmlns:xlink="http://www.w3.org/1999/xlink">
    <title>Icon</title>
    <defs>
        <linearGradient x1="50%" y1="0%" x2="50%" y2="100%" id="linearGradient-1">
            <stop stop-color="#07A090" offset="0%"></stop>
            <stop stop-color="#24C3B2" offset="100%"></stop>
        </linearGradient>
    </defs>
    <g id="Icon" stroke="none" stroke-width="1" fill="none" fill-rule="evenodd">
        <path d="M146.141456,-5.90428975e-15 L365.858544,5.90428975e-15 C416.675112,-3.43056238e-15 435.102427,5.29105984 453.680205,15.2265641 C472.257983,25.1620684 486.837932,39.7420171 496.773436,58.3197949 C506.70894,76.8975727 512,95.3248882 512,146.141456 L512,365.858544 C512,416.675112 506.70894,435.102427 496.773436,453.680205 C486.837932,472.257983 472.257983,486.837932 453.680205,496.773436 C435.102427,506.70894 416.675112,512 365.858544,512 L146.141456,512 C95.3248882,512 76.8975727,506.70894 58.3197949,496.773436 C39.7420171,486.837932 25.1620684,472.257983 15.2265641,453.680205 C5.29105984,435.102427 2.28704159e-15,416.675112 -3.93619317e-15,365.858544 L3.93619317e-15,146.141456 C-2.28704159e-15,95.3248882 5.29105984,76.8975727 15.2265641,58.3197949 C25.1620684,39.7420171 39.7420171,25.1620684 58.3197949,15.2265641 C76.8975727,5.29105984 95.3248882,3.43056238e-15 146.141456,-5.90428975e-15 Z" id="colorBg" fill="url(#linearGradient-1)"></path>
        <g id="diving" transform="translate(82, 90)" fill="#FFFFFF" fill-rule="nonzero">
            <path d="M0,173.904762 C0,156.514286 14.2363636,142.285714 31.6363636,142.285714 C49.0363636,142.285714 63.2727273,156.514286 63.2727273,173.904762 C63.2727273,191.295238 49.0363636,205.52381 31.6363636,205.52381 C14.2363636,205.52381 0,191.295238 0,173.904762 Z M124.805455,128.215238 L196.461818,109.085714 L184.123636,63.2380952 L112.467273,82.367619 C99.8127273,85.687619 92.22,98.8095238 95.7,111.457143 C99.18,124.104762 112.150909,131.693333 124.805455,128.215238 L124.805455,128.215238 Z M308.454545,61.6571429 L348,15.8095238 L332.181818,0 L284.727273,47.4285714 L253.090909,110.666667 L103.134545,156.04 C90.1636364,159.201905 81.1472727,170.110476 79.4072727,182.6 L67.0690909,252.952381 L22.1454545,313.028571 L47.4545455,332 L94.9090909,268.761905 L112.941818,219.12 L205.636364,189.714286 L284.727273,134.380952 L308.454545,61.6571429 Z" id="diver"></path>
        </g>
    </g>
</svg>