<?xml version="1.0" encoding="UTF-8"?>
<svg width="512px" height="512px" viewBox="0 0 512 512" version="1.1" xmlns="http://www.w3.org/2000/svg" xmlns:xlink="http://www.w3.org/1999/xlink">
    <title>icon</title>
    <defs>
        <linearGradient x1="50%" y1="0%" x2="50%" y2="100%" id="linearGradient-1">
            <stop stop-color="#07A090" offset="0%"></stop>
            <stop stop-color="#24C3B2" offset="100%"></stop>
        </linearGradient>
    </defs>
    <g id="Page-1" stroke="none" stroke-width="1" fill="none" fill-rule="evenodd">
        <g id="icon" fill-rule="nonzero">
            <path d="M146.141456,0 L365.858544,0 C416.675112,0 435.102427,5.29105984 453.680205,15.2265641 C472.257983,25.1620684 486.837932,39.7420171 496.773436,58.3197949 C506.70894,76.8975727 512,95.3248882 512,146.141456 L512,365.858544 C512,416.675112 506.70894,435.102427 496.773436,453.680205 C486.837932,472.257983 472.257983,486.837932 453.680205,496.773436 C435.102427,506.70894 416.675112,512 365.858544,512 L146.141456,512 C95.3248882,512 76.8975727,506.70894 58.3197949,496.773436 C39.7420171,486.837932 25.1620684,472.257983 15.2265641,453.680205 C5.29105984,435.102427 0,416.675112 0,365.858544 L0,146.141456 C0,95.3248882 5.29105984,76.8975727 15.2265641,58.3197949 C25.1620684,39.7420171 39.7420171,25.1620684 58.3197949,15.2265641 C76.8975727,5.29105984 95.3248882,0 146.141456,0 Z" id="colorBg" fill="url(#linearGradient-1)"></path>
            <path d="M250.241883,43 L250.289732,43.0882987 C251.842218,45.9653131 290.654379,118.784675 290.654379,208.184854 C290.654379,227.830302 288.718151,246.588843 285.770016,264.06932 C290.598256,253.617768 296.063403,243.041217 302.494539,232.582012 C346.242075,161.389693 413.226903,123.039276 413.226903,123.039276 C413.226903,123.039276 409.299174,200.132967 365.567794,271.326137 C356.782062,285.61103 347.071159,298.510715 337.152771,310.104276 C388.997042,288.195899 441.359897,291.204888 443.433673,291.334011 L443.497372,291.338082 C443.497372,291.338082 411.195437,331.583911 358.111997,354.182595 C337.858555,362.802511 317.52178,367.587384 300.086371,370.2379 C308.31768,370.846744 317.089806,372.050828 326.028599,374.24301 C363.893675,383.502195 390.428295,406.389124 391.474534,407.300897 L391.506622,407.32896 C391.506622,407.32896 355.703829,415.634249 317.04984,406.180148 C292.008123,400.044082 272.059954,388.035554 261.033571,380.294893 L270.261481,454.116469 C270.690053,457.624129 269.722364,461.150496 267.577802,463.813767 C265.431539,466.471085 262.34905,468 259.095642,468 L241.416185,468 C238.161927,468 235.079438,466.471085 232.934876,463.813767 C230.790314,461.150496 229.820074,457.624129 230.250347,454.116469 L239.478256,380.28894 C228.453574,388.027901 208.503704,400.043231 183.446682,406.180148 C144.793543,415.635099 108.9899,407.32896 108.9899,407.32896 L109.021987,407.300897 C110.068195,406.389124 136.602081,383.502195 174.471323,374.24301 C183.405015,372.050828 192.177141,370.846744 200.409301,370.2379 C182.979844,367.587384 162.643069,362.802511 142.389627,354.182595 C89.3044864,331.583911 57,291.338082 57,291.338082 C57,291.338082 110.428678,287.748789 163.347152,310.105126 C153.427064,298.511566 143.71531,285.61188 134.932129,271.326987 C91.201599,200.133818 87.2704687,123.040126 87.2704687,123.040126 C87.2704687,123.040126 154.259548,161.390543 198.001983,232.582862 C204.419513,243.042067 209.898265,253.611816 214.728207,264.065068 C211.783473,246.590543 209.845544,227.831152 209.845544,208.186555 C209.845544,116.960182 250.241883,43 250.241883,43 Z" id="path-2" fill="#FFFFFF"></path>
        </g>
    </g>
</svg>