<?xml version="1.0" encoding="UTF-8"?>
<svg width="512px" height="512px" viewBox="0 0 512 512" version="1.1" xmlns="http://www.w3.org/2000/svg" xmlns:xlink="http://www.w3.org/1999/xlink">
    <title>iOS</title>
    <defs>
        <linearGradient x1="50%" y1="0%" x2="50%" y2="98.6232517%" id="linearGradient-1">
            <stop stop-color="#355461" offset="0%"></stop>
            <stop stop-color="#2C4C59" offset="98.2244318%"></stop>
        </linearGradient>
        <linearGradient x1="50%" y1="0%" x2="50%" y2="100%" id="linearGradient-2">
            <stop stop-color="#07A090" offset="0%"></stop>
            <stop stop-color="#24C3B2" offset="100%"></stop>
        </linearGradient>
    </defs>
    <g id="iOS" stroke="none" stroke-width="1" fill="none" fill-rule="evenodd">
        <path d="M146.141456,0.25 L365.858544,0.25 C416.604312,0.25 435.009468,5.52485145 453.562305,15.4470174 C472.095872,25.3588771 486.641123,39.9041284 496.552983,58.4376946 C506.475149,76.9905319 511.75,95.3956875 511.75,146.141456 L511.75,365.858544 C511.75,416.604312 506.475149,435.009468 496.552983,453.562305 C486.641123,472.095872 472.095872,486.641123 453.562305,496.552983 C435.009468,506.475149 416.604312,511.75 365.858544,511.75 L146.141456,511.75 C95.3956875,511.75 76.9905319,506.475149 58.4376946,496.552983 C39.9041284,486.641123 25.3588771,472.095872 15.4470174,453.562305 C5.52485145,435.009468 0.25,416.604312 0.25,365.858544 L0.25,146.141456 C0.25,95.3956875 5.52485145,76.9905319 15.4470174,58.4376946 C25.3588771,39.9041284 39.9041284,25.3588771 58.4376946,15.4470174 C76.9905319,5.52485145 95.3956875,0.25 146.141456,0.25 Z" id="Light-Blue" stroke="#FF0000" stroke-width="0.5" fill="url(#linearGradient-1)"></path>
        <path d="M146.141456,-5.90428975e-15 L365.858544,5.90428975e-15 C416.675112,-3.43056238e-15 435.102427,5.29105984 453.680205,15.2265641 C472.257983,25.1620684 486.837932,39.7420171 496.773436,58.3197949 C506.70894,76.8975727 512,95.3248882 512,146.141456 L512,365.858544 C512,416.675112 506.70894,435.102427 496.773436,453.680205 C486.837932,472.257983 472.257983,486.837932 453.680205,496.773436 C435.102427,506.70894 416.675112,512 365.858544,512 L146.141456,512 C95.3248882,512 76.8975727,506.70894 58.3197949,496.773436 C39.7420171,486.837932 25.1620684,472.257983 15.2265641,453.680205 C5.29105984,435.102427 2.28704159e-15,416.675112 -3.93619317e-15,365.858544 L3.93619317e-15,146.141456 C-2.28704159e-15,95.3248882 5.29105984,76.8975727 15.2265641,58.3197949 C25.1620684,39.7420171 39.7420171,25.1620684 58.3197949,15.2265641 C76.8975727,5.29105984 95.3248882,3.43056238e-15 146.141456,-5.90428975e-15 Z" id="colorBg" fill="url(#linearGradient-2)"></path>
        <g id="Spy" transform="translate(39, 108)" fill="#FFFFFF" fill-rule="nonzero">
            <path d="M217.5,0 C118.636364,0 34.2068182,61.3706667 0,148 C34.2068182,234.629333 118.636364,296 217.5,296 C316.363636,296 400.793182,234.629333 435,148 C400.793182,61.3706667 316.363636,0 217.5,0 Z M217.5,246.666667 C162.927273,246.666667 118.636364,202.464 118.636364,148 C118.636364,93.536 162.927273,49.3333333 217.5,49.3333333 C272.072727,49.3333333 316.363636,93.536 316.363636,148 C316.363636,202.464 272.072727,246.666667 217.5,246.666667 Z" id="Eye"></path>
            <path d="M217.5,88.8 C184.677273,88.8 158.181818,115.242667 158.181818,148 C158.181818,180.757333 184.677273,207.2 217.5,207.2 C250.322727,207.2 276.818182,180.757333 276.818182,148 C276.818182,115.242667 250.322727,88.8 217.5,88.8 Z" id="Path"></path>
        </g>
    </g>
</svg>