<?xml version="1.0" encoding="UTF-8"?>
<svg width="512px" height="512px" viewBox="0 0 512 512" version="1.1" xmlns="http://www.w3.org/2000/svg" xmlns:xlink="http://www.w3.org/1999/xlink">
    <title>iOS</title>
    <defs>
        <linearGradient x1="50%" y1="0%" x2="50%" y2="100%" id="linearGradient-1">
            <stop stop-color="#07A090" offset="0%"></stop>
            <stop stop-color="#24C3B2" offset="100%"></stop>
        </linearGradient>
    </defs>
    <g id="iOS" stroke="none" stroke-width="1" fill="none" fill-rule="evenodd">
        <path d="M146.141456,0 L365.858544,0 C416.675112,0 435.102427,5.29105984 453.680205,15.2265641 C472.257983,25.1620684 486.837932,39.7420171 496.773436,58.3197949 C506.70894,76.8975727 512,95.3248882 512,146.141456 L512,365.858544 C512,416.675112 506.70894,435.102427 496.773436,453.680205 C486.837932,472.257983 472.257983,486.837932 453.680205,496.773436 C435.102427,506.70894 416.675112,512 365.858544,512 L146.141456,512 C95.3248882,512 76.8975727,506.70894 58.3197949,496.773436 C39.7420171,486.837932 25.1620684,472.257983 15.2265641,453.680205 C5.29105984,435.102427 0,416.675112 0,365.858544 L0,146.141456 C0,95.3248882 5.29105984,76.8975727 15.2265641,58.3197949 C25.1620684,39.7420171 39.7420171,25.1620684 58.3197949,15.2265641 C76.8975727,5.29105984 95.3248882,0 146.141456,0 Z" id="colorBg" fill="url(#linearGradient-1)" fill-rule="nonzero"></path>
        <path d="M146,344 L366,344 L300,257 L240.734694,332.903061 L198.979592,276.530612 L146,344 Z M148,247 C175.648649,247 199.060811,237.375 218.236486,218.125 C237.412162,198.875 247,175.5 247,148 L222.918919,148 C222.918919,168.810811 215.659365,186.5 201.140257,201.067568 C186.621149,215.635135 168.90773,222.918919 148,222.918919 L148,247 Z M148,189 C159.768421,189 169.877193,184.991912 178.326316,176.975736 C186.775439,168.959861 191,159.301282 191,148 L148,148 L148,189 Z M120.916667,417 C113.738889,417 107.458333,414.308333 102.075,408.925 C96.6916667,403.541667 94,397.261111 94,390.083333 L94,120.916667 C94,113.738889 96.6916667,107.458333 102.075,102.075 C107.458333,96.6916667 113.738889,94 120.916667,94 L390.083333,94 C397.261111,94 403.541667,96.6916667 408.925,102.075 C414.308333,107.458333 417,113.738889 417,120.916667 L417,390.083333 C417,397.261111 414.308333,403.541667 408.925,408.925 C403.541667,414.308333 397.261111,417 390.083333,417 L120.916667,417 Z M121,390 L390,390 L390,121 L121,121 L121,390 Z M121.5,390 L121.5,121 L121.5,390 Z" id="weathermapshape" fill="#FFFFFF" fill-rule="nonzero"></path>
    </g>
</svg>